<svg xmlns="http://www.w3.org/2000/svg" viewBox="0 0 512 512">
  <defs>
    <linearGradient id="grad" x1="0%" y1="0%" x2="100%" y2="100%">
      <stop offset="0%" style="stop-color:#6366f1;stop-opacity:1" />
      <stop offset="100%" style="stop-color:#f472b6;stop-opacity:1" />
    </linearGradient>
    <filter id="shadow" x="-20%" y="-20%" width="140%" height="140%">
      <feGaussianBlur in="SourceAlpha" stdDeviation="15" />
      <feOffset dx="0" dy="10" result="offsetblur" />
      <feComponentTransfer>
        <feFuncA type="linear" slope="0.5" />
      </feComponentTransfer>
      <feMerge>
        <feMergeNode />
        <feMergeNode in="SourceGraphic" />
      </feMerge>
    </filter>
  </defs>
  <rect width="512" height="512" rx="100" fill="#0f172a"/>
  <circle cx="256" cy="256" r="180" fill="url(#grad)" opacity="0.1"/>
  <g filter="url(#shadow)">
    <path d="M256 80c-77.3 0-140 62.7-140 140 0 85 140 212 140 212s140-127 140-212c0-77.3-62.7-140-140-140zm0 190c-27.6 0-50-22.4-50-50s22.4-50 50-50 50 22.4 50 50-22.4 50-50 50z" fill="url(#grad)"/>
    <circle cx="256" cy="220" r="30" fill="#ffffff" opacity="0.8"/>
  </g>
  <path d="M256 120a100 100 0 0 0-100 100" fill="none" stroke="#ffffff" stroke-width="12" stroke-linecap="round" opacity="0.3"/>
</svg>
